<mxfile host="app.diagrams.net" agent="Mozilla/5.0 (Windows NT 10.0; Win64; x64) AppleWebKit/537.36 (KHTML, like Gecko) Chrome/131.0.0.0 Safari/537.36" version="26.0.10">
  <diagram name="PÃ¡gina-1" id="XCKeInOInlcj9foHm_Fp">
    <mxGraphModel dx="1120" dy="1603" grid="1" gridSize="10" guides="1" tooltips="1" connect="1" arrows="1" fold="1" page="1" pageScale="1" pageWidth="827" pageHeight="1169" math="0" shadow="0">
      <root>
        <mxCell id="0" />
        <mxCell id="1" parent="0" />
        <mxCell id="2I8H6bCsuLiJTHf2caEf-4" style="edgeStyle=orthogonalEdgeStyle;rounded=0;orthogonalLoop=1;jettySize=auto;html=1;curved=1;exitX=0.25;exitY=1;exitDx=0;exitDy=0;entryX=0.564;entryY=-0.04;entryDx=0;entryDy=0;entryPerimeter=0;" edge="1" parent="1" source="WF7nc1QoSieEs7M4DVRX-1" target="WF7nc1QoSieEs7M4DVRX-10">
          <mxGeometry relative="1" as="geometry">
            <mxPoint x="320" y="135" as="sourcePoint" />
            <mxPoint x="130" y="280" as="targetPoint" />
          </mxGeometry>
        </mxCell>
        <mxCell id="2I8H6bCsuLiJTHf2caEf-5" style="edgeStyle=orthogonalEdgeStyle;rounded=0;orthogonalLoop=1;jettySize=auto;html=1;entryX=0.5;entryY=0;entryDx=0;entryDy=0;exitX=0.35;exitY=1.06;exitDx=0;exitDy=0;curved=1;exitPerimeter=0;" edge="1" parent="1" source="WF7nc1QoSieEs7M4DVRX-1" target="2I8H6bCsuLiJTHf2caEf-1">
          <mxGeometry relative="1" as="geometry" />
        </mxCell>
        <mxCell id="WF7nc1QoSieEs7M4DVRX-1" value="Orquestador-BillPayment" style="shape=module;align=left;spacingLeft=20;align=center;verticalAlign=top;whiteSpace=wrap;html=1;fillColor=light-dark(#33FF33,var(--ge-dark-color, #121212));" vertex="1" parent="1">
          <mxGeometry x="310" y="60" width="140" height="50" as="geometry" />
        </mxCell>
        <mxCell id="WF7nc1QoSieEs7M4DVRX-2" value="DB-Billpayment" style="shape=cylinder3;whiteSpace=wrap;html=1;boundedLbl=1;backgroundOutline=1;size=15;" vertex="1" parent="1">
          <mxGeometry x="50" y="50" width="120" height="80" as="geometry" />
        </mxCell>
        <mxCell id="WF7nc1QoSieEs7M4DVRX-8" value="" style="group" vertex="1" connectable="0" parent="1">
          <mxGeometry x="450" y="230" width="205" height="205" as="geometry" />
        </mxCell>
        <mxCell id="WF7nc1QoSieEs7M4DVRX-7" value="" style="whiteSpace=wrap;html=1;aspect=fixed;" vertex="1" parent="WF7nc1QoSieEs7M4DVRX-8">
          <mxGeometry width="205" height="205" as="geometry" />
        </mxCell>
        <mxCell id="WF7nc1QoSieEs7M4DVRX-4" value="BillPaymentCNT" style="shape=module;align=left;spacingLeft=20;align=center;verticalAlign=top;whiteSpace=wrap;html=1;" vertex="1" parent="WF7nc1QoSieEs7M4DVRX-8">
          <mxGeometry x="32.5" y="149" width="130" height="50" as="geometry" />
        </mxCell>
        <mxCell id="WF7nc1QoSieEs7M4DVRX-5" value="BillPaymentEtapa" style="shape=module;align=left;spacingLeft=20;align=center;verticalAlign=top;whiteSpace=wrap;html=1;" vertex="1" parent="WF7nc1QoSieEs7M4DVRX-8">
          <mxGeometry x="32.5" y="79" width="130" height="50" as="geometry" />
        </mxCell>
        <mxCell id="WF7nc1QoSieEs7M4DVRX-6" value="BillPaymentFacilito" style="shape=module;align=left;spacingLeft=20;align=center;verticalAlign=top;whiteSpace=wrap;html=1;" vertex="1" parent="WF7nc1QoSieEs7M4DVRX-8">
          <mxGeometry x="32.5" y="9" width="130" height="50" as="geometry" />
        </mxCell>
        <mxCell id="WF7nc1QoSieEs7M4DVRX-10" value="Service-Products" style="shape=module;align=left;spacingLeft=20;align=center;verticalAlign=top;whiteSpace=wrap;html=1;" vertex="1" parent="1">
          <mxGeometry x="50" y="230" width="140" height="50" as="geometry" />
        </mxCell>
        <mxCell id="WF7nc1QoSieEs7M4DVRX-11" value="DB-Products" style="shape=cylinder3;whiteSpace=wrap;html=1;boundedLbl=1;backgroundOutline=1;size=15;" vertex="1" parent="1">
          <mxGeometry x="60" y="350" width="120" height="80" as="geometry" />
        </mxCell>
        <mxCell id="WF7nc1QoSieEs7M4DVRX-12" style="edgeStyle=orthogonalEdgeStyle;rounded=0;orthogonalLoop=1;jettySize=auto;html=1;curved=1;" edge="1" parent="1" source="WF7nc1QoSieEs7M4DVRX-10" target="WF7nc1QoSieEs7M4DVRX-11">
          <mxGeometry relative="1" as="geometry" />
        </mxCell>
        <mxCell id="WF7nc1QoSieEs7M4DVRX-13" style="edgeStyle=orthogonalEdgeStyle;rounded=0;orthogonalLoop=1;jettySize=auto;html=1;entryX=1;entryY=0;entryDx=0;entryDy=27.5;entryPerimeter=0;" edge="1" parent="1" source="WF7nc1QoSieEs7M4DVRX-1" target="WF7nc1QoSieEs7M4DVRX-2">
          <mxGeometry relative="1" as="geometry" />
        </mxCell>
        <mxCell id="2I8H6bCsuLiJTHf2caEf-1" value="Microservice&lt;br style=&quot;border-color: var(--border-color);&quot;&gt;AccountTransactions&lt;div&gt;BDA&lt;/div&gt;" style="shape=module;align=left;spacingLeft=20;align=center;verticalAlign=top;whiteSpace=wrap;html=1;" vertex="1" parent="1">
          <mxGeometry x="250" y="230" width="140" height="50" as="geometry" />
        </mxCell>
        <mxCell id="2I8H6bCsuLiJTHf2caEf-2" value="&lt;font style=&quot;font-size: 8px;&quot;&gt;DB-AccountTransactions&lt;/font&gt;" style="shape=cylinder3;whiteSpace=wrap;html=1;boundedLbl=1;backgroundOutline=1;size=15;" vertex="1" parent="1">
          <mxGeometry x="250" y="320" width="80" height="80" as="geometry" />
        </mxCell>
        <mxCell id="2I8H6bCsuLiJTHf2caEf-3" style="edgeStyle=orthogonalEdgeStyle;rounded=0;orthogonalLoop=1;jettySize=auto;html=1;entryX=0.583;entryY=0;entryDx=0;entryDy=0;entryPerimeter=0;curved=1;" edge="1" parent="1" source="2I8H6bCsuLiJTHf2caEf-1" target="2I8H6bCsuLiJTHf2caEf-2">
          <mxGeometry relative="1" as="geometry" />
        </mxCell>
        <mxCell id="2I8H6bCsuLiJTHf2caEf-11" style="edgeStyle=orthogonalEdgeStyle;rounded=0;orthogonalLoop=1;jettySize=auto;html=1;curved=1;exitX=0.5;exitY=1;exitDx=0;exitDy=0;" edge="1" parent="1" source="WF7nc1QoSieEs7M4DVRX-1">
          <mxGeometry relative="1" as="geometry">
            <mxPoint x="560" y="230" as="targetPoint" />
            <Array as="points">
              <mxPoint x="380" y="180" />
              <mxPoint x="561" y="180" />
            </Array>
          </mxGeometry>
        </mxCell>
        <mxCell id="2I8H6bCsuLiJTHf2caEf-14" value="NotficationHub" style="shape=module;align=left;spacingLeft=20;align=center;verticalAlign=top;whiteSpace=wrap;html=1;" vertex="1" parent="1">
          <mxGeometry x="680" y="240" width="140" height="50" as="geometry" />
        </mxCell>
        <mxCell id="2I8H6bCsuLiJTHf2caEf-15" style="edgeStyle=orthogonalEdgeStyle;rounded=0;orthogonalLoop=1;jettySize=auto;html=1;entryX=0.5;entryY=0;entryDx=0;entryDy=0;curved=1;exitX=0.75;exitY=1;exitDx=0;exitDy=0;" edge="1" parent="1" source="WF7nc1QoSieEs7M4DVRX-1" target="2I8H6bCsuLiJTHf2caEf-14">
          <mxGeometry relative="1" as="geometry" />
        </mxCell>
        <mxCell id="2I8H6bCsuLiJTHf2caEf-24" value="" style="group" vertex="1" connectable="0" parent="1">
          <mxGeometry x="160" y="480" width="390" height="210" as="geometry" />
        </mxCell>
        <mxCell id="2I8H6bCsuLiJTHf2caEf-22" value="" style="rounded=1;whiteSpace=wrap;html=1;" vertex="1" parent="2I8H6bCsuLiJTHf2caEf-24">
          <mxGeometry width="390" height="210" as="geometry" />
        </mxCell>
        <mxCell id="2I8H6bCsuLiJTHf2caEf-8" value="FITBANK" style="aspect=fixed;html=1;points=[];align=center;image;fontSize=12;image=img/lib/azure2/general/Server_Farm.svg;" vertex="1" parent="2I8H6bCsuLiJTHf2caEf-24">
          <mxGeometry x="90" y="110" width="64" height="64" as="geometry" />
        </mxCell>
        <mxCell id="2I8H6bCsuLiJTHf2caEf-16" value="Fuse&lt;br&gt;CoreFinancial" style="shape=module;align=left;spacingLeft=20;align=center;verticalAlign=top;whiteSpace=wrap;html=1;" vertex="1" parent="2I8H6bCsuLiJTHf2caEf-24">
          <mxGeometry x="40" y="20" width="140" height="50" as="geometry" />
        </mxCell>
        <mxCell id="2I8H6bCsuLiJTHf2caEf-17" style="edgeStyle=orthogonalEdgeStyle;rounded=0;orthogonalLoop=1;jettySize=auto;html=1;entryX=0.313;entryY=0.016;entryDx=0;entryDy=0;entryPerimeter=0;" edge="1" parent="2I8H6bCsuLiJTHf2caEf-24" source="2I8H6bCsuLiJTHf2caEf-16" target="2I8H6bCsuLiJTHf2caEf-8">
          <mxGeometry relative="1" as="geometry" />
        </mxCell>
        <mxCell id="2I8H6bCsuLiJTHf2caEf-18" value="Syscard" style="aspect=fixed;html=1;points=[];align=center;image;fontSize=12;image=img/lib/azure2/general/Server_Farm.svg;" vertex="1" parent="2I8H6bCsuLiJTHf2caEf-24">
          <mxGeometry x="244" y="110" width="64" height="64" as="geometry" />
        </mxCell>
        <mxCell id="2I8H6bCsuLiJTHf2caEf-19" value="ServiceTransacTarjet" style="shape=module;align=left;spacingLeft=20;align=center;verticalAlign=top;whiteSpace=wrap;html=1;" vertex="1" parent="2I8H6bCsuLiJTHf2caEf-24">
          <mxGeometry x="194" y="20" width="140" height="50" as="geometry" />
        </mxCell>
        <mxCell id="2I8H6bCsuLiJTHf2caEf-20" style="edgeStyle=orthogonalEdgeStyle;rounded=0;orthogonalLoop=1;jettySize=auto;html=1;entryX=0.313;entryY=0.016;entryDx=0;entryDy=0;entryPerimeter=0;" edge="1" parent="2I8H6bCsuLiJTHf2caEf-24" source="2I8H6bCsuLiJTHf2caEf-19" target="2I8H6bCsuLiJTHf2caEf-18">
          <mxGeometry relative="1" as="geometry" />
        </mxCell>
        <mxCell id="2I8H6bCsuLiJTHf2caEf-9" style="edgeStyle=orthogonalEdgeStyle;rounded=0;orthogonalLoop=1;jettySize=auto;html=1;entryX=0.586;entryY=0.04;entryDx=0;entryDy=0;curved=1;exitX=0.814;exitY=0.98;exitDx=0;exitDy=0;exitPerimeter=0;entryPerimeter=0;" edge="1" parent="1" source="2I8H6bCsuLiJTHf2caEf-1" target="2I8H6bCsuLiJTHf2caEf-16">
          <mxGeometry relative="1" as="geometry">
            <mxPoint x="450" y="91" as="sourcePoint" />
            <mxPoint x="754.98" y="280" as="targetPoint" />
            <Array as="points">
              <mxPoint x="364" y="410" />
              <mxPoint x="282" y="410" />
            </Array>
          </mxGeometry>
        </mxCell>
        <mxCell id="2I8H6bCsuLiJTHf2caEf-23" style="edgeStyle=orthogonalEdgeStyle;rounded=0;orthogonalLoop=1;jettySize=auto;html=1;curved=1;entryX=0.5;entryY=0;entryDx=0;entryDy=0;" edge="1" parent="1" source="2I8H6bCsuLiJTHf2caEf-1" target="2I8H6bCsuLiJTHf2caEf-19">
          <mxGeometry relative="1" as="geometry">
            <Array as="points">
              <mxPoint x="370" y="450" />
              <mxPoint x="424" y="450" />
            </Array>
          </mxGeometry>
        </mxCell>
        <mxCell id="2I8H6bCsuLiJTHf2caEf-25" value="OBDX" style="shape=module;align=left;spacingLeft=20;align=center;verticalAlign=top;whiteSpace=wrap;html=1;" vertex="1" parent="1">
          <mxGeometry x="120" y="-180" width="140" height="50" as="geometry" />
        </mxCell>
        <mxCell id="2I8H6bCsuLiJTHf2caEf-26" value="OBDX-Integrador" style="shape=module;align=left;spacingLeft=20;align=center;verticalAlign=top;whiteSpace=wrap;html=1;" vertex="1" parent="1">
          <mxGeometry x="270" y="-80" width="140" height="50" as="geometry" />
        </mxCell>
      </root>
    </mxGraphModel>
  </diagram>
</mxfile>
